<mxfile host="Electron" modified="2024-07-04T15:16:49.424Z" agent="Mozilla/5.0 (Macintosh; Intel Mac OS X 10_15_7) AppleWebKit/537.36 (KHTML, like Gecko) draw.io/24.6.4 Chrome/124.0.6367.207 Electron/30.0.6 Safari/537.36" etag="7YOAbAKCc9vgf6sP2O1C" version="24.6.4" type="device">
  <diagram name="Page-1" id="Wyo6KM-4xSmosVgq0dVH">
    <mxGraphModel dx="1962" dy="1104" grid="0" gridSize="10" guides="1" tooltips="1" connect="1" arrows="1" fold="1" page="0" pageScale="1" pageWidth="827" pageHeight="1169" math="0" shadow="0">
      <root>
        <mxCell id="0" />
        <mxCell id="1" parent="0" />
        <mxCell id="Ucu2nFOiy2mf5pEktIg1-2" value="&lt;font style=&quot;font-size: 24px;&quot; face=&quot;Gloria Hallelujah&quot;&gt;Beginner&lt;/font&gt;" style="text;html=1;align=center;verticalAlign=middle;whiteSpace=wrap;rounded=0;fontSize=24;fontStyle=4" vertex="1" parent="1">
          <mxGeometry x="157" y="325" width="60" height="30" as="geometry" />
        </mxCell>
        <mxCell id="Ucu2nFOiy2mf5pEktIg1-3" value="&lt;font style=&quot;font-size: 24px;&quot; face=&quot;Gloria Hallelujah&quot;&gt;Pro&lt;/font&gt;" style="text;html=1;align=center;verticalAlign=middle;whiteSpace=wrap;rounded=0;fontSize=24;fontStyle=4" vertex="1" parent="1">
          <mxGeometry x="157" y="610" width="60" height="30" as="geometry" />
        </mxCell>
        <mxCell id="Ucu2nFOiy2mf5pEktIg1-4" value="&lt;font style=&quot;font-size: 24px;&quot; face=&quot;Gloria Hallelujah&quot;&gt;Expert&lt;/font&gt;" style="text;html=1;align=center;verticalAlign=middle;whiteSpace=wrap;rounded=0;fontSize=24;fontStyle=4" vertex="1" parent="1">
          <mxGeometry x="157" y="1040" width="60" height="30" as="geometry" />
        </mxCell>
        <mxCell id="Ucu2nFOiy2mf5pEktIg1-10" style="edgeStyle=orthogonalEdgeStyle;rounded=0;orthogonalLoop=1;jettySize=auto;html=1;exitX=0.5;exitY=0.5;exitDx=0;exitDy=0;exitPerimeter=0;entryX=0;entryY=0.5;entryDx=0;entryDy=0;fontFamily=Gloria Hallelujah;fontSource=https%3A%2F%2Ffonts.googleapis.com%2Fcss%3Ffamily%3DGloria%2BHallelujah;fontSize=20;fontColor=default;strokeWidth=2;flowAnimation=1;" edge="1" parent="1" source="Ucu2nFOiy2mf5pEktIg1-11" target="Ucu2nFOiy2mf5pEktIg1-13">
          <mxGeometry relative="1" as="geometry" />
        </mxCell>
        <mxCell id="Ucu2nFOiy2mf5pEktIg1-11" value="Developer" style="shape=umlActor;verticalLabelPosition=bottom;verticalAlign=top;html=1;outlineConnect=0;sketch=1;curveFitting=1;jiggle=2;fontFamily=Gloria Hallelujah;fontSource=https%3A%2F%2Ffonts.googleapis.com%2Fcss%3Ffamily%3DGloria%2BHallelujah;fontSize=18;" vertex="1" parent="1">
          <mxGeometry x="330" y="250" width="30" height="60" as="geometry" />
        </mxCell>
        <mxCell id="Ucu2nFOiy2mf5pEktIg1-12" style="edgeStyle=orthogonalEdgeStyle;shape=connector;rounded=0;orthogonalLoop=1;jettySize=auto;html=1;exitX=1;exitY=0.5;exitDx=0;exitDy=0;entryX=0;entryY=0.5;entryDx=0;entryDy=0;strokeColor=default;strokeWidth=2;align=center;verticalAlign=middle;fontFamily=Gloria Hallelujah;fontSource=https%3A%2F%2Ffonts.googleapis.com%2Fcss%3Ffamily%3DGloria%2BHallelujah;fontSize=20;fontColor=default;labelBackgroundColor=default;endArrow=classic;flowAnimation=1;" edge="1" parent="1" source="Ucu2nFOiy2mf5pEktIg1-13" target="Ucu2nFOiy2mf5pEktIg1-14">
          <mxGeometry relative="1" as="geometry" />
        </mxCell>
        <mxCell id="Ucu2nFOiy2mf5pEktIg1-13" value="IDE" style="rounded=1;whiteSpace=wrap;html=1;sketch=1;curveFitting=1;jiggle=2;fontFamily=Gloria Hallelujah;fontSource=https%3A%2F%2Ffonts.googleapis.com%2Fcss%3Ffamily%3DGloria%2BHallelujah;fontSize=20;fillColor=#dae8fc;gradientColor=#7ea6e0;strokeColor=#6c8ebf;fontColor=#000000;" vertex="1" parent="1">
          <mxGeometry x="420" y="260" width="90" height="40" as="geometry" />
        </mxCell>
        <mxCell id="Ucu2nFOiy2mf5pEktIg1-20" style="edgeStyle=orthogonalEdgeStyle;shape=connector;rounded=0;orthogonalLoop=1;jettySize=auto;html=1;exitX=1;exitY=0.5;exitDx=0;exitDy=0;entryX=0;entryY=0.5;entryDx=0;entryDy=0;strokeColor=default;strokeWidth=2;align=center;verticalAlign=middle;fontFamily=Gloria Hallelujah;fontSource=https%3A%2F%2Ffonts.googleapis.com%2Fcss%3Ffamily%3DGloria%2BHallelujah;fontSize=20;fontColor=default;labelBackgroundColor=default;endArrow=classic;flowAnimation=1;" edge="1" parent="1" source="Ucu2nFOiy2mf5pEktIg1-14" target="Ucu2nFOiy2mf5pEktIg1-19">
          <mxGeometry relative="1" as="geometry" />
        </mxCell>
        <mxCell id="Ucu2nFOiy2mf5pEktIg1-14" value="Repo" style="rounded=1;whiteSpace=wrap;html=1;sketch=1;curveFitting=1;jiggle=2;fontFamily=Gloria Hallelujah;fontSource=https%3A%2F%2Ffonts.googleapis.com%2Fcss%3Ffamily%3DGloria%2BHallelujah;fontSize=20;" vertex="1" parent="1">
          <mxGeometry x="560" y="260" width="90" height="40" as="geometry" />
        </mxCell>
        <mxCell id="Ucu2nFOiy2mf5pEktIg1-15" style="edgeStyle=orthogonalEdgeStyle;rounded=0;orthogonalLoop=1;jettySize=auto;html=1;exitX=0.5;exitY=0.5;exitDx=0;exitDy=0;exitPerimeter=0;entryX=0;entryY=0.5;entryDx=0;entryDy=0;fontFamily=Gloria Hallelujah;fontSource=https%3A%2F%2Ffonts.googleapis.com%2Fcss%3Ffamily%3DGloria%2BHallelujah;fontSize=20;fontColor=default;strokeWidth=2;flowAnimation=1;" edge="1" parent="1" source="Ucu2nFOiy2mf5pEktIg1-16" target="Ucu2nFOiy2mf5pEktIg1-17">
          <mxGeometry relative="1" as="geometry" />
        </mxCell>
        <mxCell id="Ucu2nFOiy2mf5pEktIg1-16" value="Developer" style="shape=umlActor;verticalLabelPosition=bottom;verticalAlign=top;html=1;outlineConnect=0;sketch=1;curveFitting=1;jiggle=2;fontFamily=Gloria Hallelujah;fontSource=https%3A%2F%2Ffonts.googleapis.com%2Fcss%3Ffamily%3DGloria%2BHallelujah;fontSize=18;" vertex="1" parent="1">
          <mxGeometry x="330" y="355" width="30" height="60" as="geometry" />
        </mxCell>
        <mxCell id="Ucu2nFOiy2mf5pEktIg1-17" value="IDE" style="rounded=1;whiteSpace=wrap;html=1;sketch=1;curveFitting=1;jiggle=2;fontFamily=Gloria Hallelujah;fontSource=https%3A%2F%2Ffonts.googleapis.com%2Fcss%3Ffamily%3DGloria%2BHallelujah;fontSize=20;fillColor=#dae8fc;gradientColor=#7ea6e0;strokeColor=#6c8ebf;fontColor=#000000;" vertex="1" parent="1">
          <mxGeometry x="420" y="365" width="90" height="40" as="geometry" />
        </mxCell>
        <mxCell id="Ucu2nFOiy2mf5pEktIg1-18" style="edgeStyle=orthogonalEdgeStyle;shape=connector;rounded=0;orthogonalLoop=1;jettySize=auto;html=1;entryX=0.189;entryY=1.025;entryDx=0;entryDy=0;entryPerimeter=0;strokeColor=default;strokeWidth=2;align=center;verticalAlign=middle;fontFamily=Gloria Hallelujah;fontSource=https%3A%2F%2Ffonts.googleapis.com%2Fcss%3Ffamily%3DGloria%2BHallelujah;fontSize=20;fontColor=default;labelBackgroundColor=default;endArrow=classic;flowAnimation=1;" edge="1" parent="1" source="Ucu2nFOiy2mf5pEktIg1-17" target="Ucu2nFOiy2mf5pEktIg1-14">
          <mxGeometry relative="1" as="geometry" />
        </mxCell>
        <mxCell id="Ucu2nFOiy2mf5pEktIg1-19" value="Deploy" style="rounded=1;whiteSpace=wrap;html=1;sketch=1;curveFitting=1;jiggle=2;fontFamily=Gloria Hallelujah;fontSource=https%3A%2F%2Ffonts.googleapis.com%2Fcss%3Ffamily%3DGloria%2BHallelujah;fontSize=20;fillColor=#f5f5f5;gradientColor=#b3b3b3;strokeColor=#666666;fontColor=#000000;" vertex="1" parent="1">
          <mxGeometry x="700" y="260" width="90" height="40" as="geometry" />
        </mxCell>
        <mxCell id="Ucu2nFOiy2mf5pEktIg1-21" style="edgeStyle=orthogonalEdgeStyle;rounded=0;orthogonalLoop=1;jettySize=auto;html=1;exitX=0.5;exitY=0.5;exitDx=0;exitDy=0;exitPerimeter=0;entryX=0;entryY=0.5;entryDx=0;entryDy=0;fontFamily=Gloria Hallelujah;fontSource=https%3A%2F%2Ffonts.googleapis.com%2Fcss%3Ffamily%3DGloria%2BHallelujah;fontSize=20;fontColor=default;strokeWidth=2;flowAnimation=1;" edge="1" parent="1" source="Ucu2nFOiy2mf5pEktIg1-22" target="Ucu2nFOiy2mf5pEktIg1-24">
          <mxGeometry relative="1" as="geometry" />
        </mxCell>
        <mxCell id="Ucu2nFOiy2mf5pEktIg1-22" value="Developer" style="shape=umlActor;verticalLabelPosition=bottom;verticalAlign=top;html=1;outlineConnect=0;sketch=1;curveFitting=1;jiggle=2;fontFamily=Gloria Hallelujah;fontSource=https%3A%2F%2Ffonts.googleapis.com%2Fcss%3Ffamily%3DGloria%2BHallelujah;fontSize=18;" vertex="1" parent="1">
          <mxGeometry x="320" y="550" width="30" height="60" as="geometry" />
        </mxCell>
        <mxCell id="Ucu2nFOiy2mf5pEktIg1-23" style="edgeStyle=orthogonalEdgeStyle;shape=connector;rounded=0;orthogonalLoop=1;jettySize=auto;html=1;exitX=1;exitY=0.5;exitDx=0;exitDy=0;entryX=0;entryY=0.5;entryDx=0;entryDy=0;strokeColor=default;strokeWidth=2;align=center;verticalAlign=middle;fontFamily=Gloria Hallelujah;fontSource=https%3A%2F%2Ffonts.googleapis.com%2Fcss%3Ffamily%3DGloria%2BHallelujah;fontSize=20;fontColor=default;labelBackgroundColor=default;endArrow=classic;flowAnimation=1;" edge="1" parent="1" source="Ucu2nFOiy2mf5pEktIg1-24" target="Ucu2nFOiy2mf5pEktIg1-26">
          <mxGeometry relative="1" as="geometry" />
        </mxCell>
        <mxCell id="Ucu2nFOiy2mf5pEktIg1-24" value="IDE" style="rounded=1;whiteSpace=wrap;html=1;sketch=1;curveFitting=1;jiggle=2;fontFamily=Gloria Hallelujah;fontSource=https%3A%2F%2Ffonts.googleapis.com%2Fcss%3Ffamily%3DGloria%2BHallelujah;fontSize=20;fillColor=#dae8fc;gradientColor=#7ea6e0;strokeColor=#6c8ebf;fontColor=#000000;" vertex="1" parent="1">
          <mxGeometry x="410" y="560" width="90" height="40" as="geometry" />
        </mxCell>
        <mxCell id="Ucu2nFOiy2mf5pEktIg1-25" style="edgeStyle=orthogonalEdgeStyle;shape=connector;rounded=0;orthogonalLoop=1;jettySize=auto;html=1;exitX=1;exitY=0.5;exitDx=0;exitDy=0;entryX=0;entryY=0.5;entryDx=0;entryDy=0;strokeColor=default;strokeWidth=2;align=center;verticalAlign=middle;fontFamily=Gloria Hallelujah;fontSource=https%3A%2F%2Ffonts.googleapis.com%2Fcss%3Ffamily%3DGloria%2BHallelujah;fontSize=20;fontColor=default;labelBackgroundColor=default;endArrow=classic;flowAnimation=1;" edge="1" parent="1" source="Ucu2nFOiy2mf5pEktIg1-26" target="Ucu2nFOiy2mf5pEktIg1-31">
          <mxGeometry relative="1" as="geometry" />
        </mxCell>
        <mxCell id="Ucu2nFOiy2mf5pEktIg1-26" value="Repo" style="rounded=1;whiteSpace=wrap;html=1;sketch=1;curveFitting=1;jiggle=2;fontFamily=Gloria Hallelujah;fontSource=https%3A%2F%2Ffonts.googleapis.com%2Fcss%3Ffamily%3DGloria%2BHallelujah;fontSize=20;" vertex="1" parent="1">
          <mxGeometry x="550" y="560" width="90" height="40" as="geometry" />
        </mxCell>
        <mxCell id="Ucu2nFOiy2mf5pEktIg1-27" style="edgeStyle=orthogonalEdgeStyle;rounded=0;orthogonalLoop=1;jettySize=auto;html=1;exitX=0.5;exitY=0.5;exitDx=0;exitDy=0;exitPerimeter=0;entryX=0;entryY=0.5;entryDx=0;entryDy=0;fontFamily=Gloria Hallelujah;fontSource=https%3A%2F%2Ffonts.googleapis.com%2Fcss%3Ffamily%3DGloria%2BHallelujah;fontSize=20;fontColor=default;strokeWidth=2;flowAnimation=1;" edge="1" parent="1" source="Ucu2nFOiy2mf5pEktIg1-28" target="Ucu2nFOiy2mf5pEktIg1-29">
          <mxGeometry relative="1" as="geometry" />
        </mxCell>
        <mxCell id="Ucu2nFOiy2mf5pEktIg1-28" value="Developer" style="shape=umlActor;verticalLabelPosition=bottom;verticalAlign=top;html=1;outlineConnect=0;sketch=1;curveFitting=1;jiggle=2;fontFamily=Gloria Hallelujah;fontSource=https%3A%2F%2Ffonts.googleapis.com%2Fcss%3Ffamily%3DGloria%2BHallelujah;fontSize=18;" vertex="1" parent="1">
          <mxGeometry x="320" y="655" width="30" height="60" as="geometry" />
        </mxCell>
        <mxCell id="Ucu2nFOiy2mf5pEktIg1-29" value="IDE" style="rounded=1;whiteSpace=wrap;html=1;sketch=1;curveFitting=1;jiggle=2;fontFamily=Gloria Hallelujah;fontSource=https%3A%2F%2Ffonts.googleapis.com%2Fcss%3Ffamily%3DGloria%2BHallelujah;fontSize=20;fillColor=#dae8fc;gradientColor=#7ea6e0;strokeColor=#6c8ebf;fontColor=#000000;" vertex="1" parent="1">
          <mxGeometry x="410" y="665" width="90" height="40" as="geometry" />
        </mxCell>
        <mxCell id="Ucu2nFOiy2mf5pEktIg1-30" style="edgeStyle=orthogonalEdgeStyle;shape=connector;rounded=0;orthogonalLoop=1;jettySize=auto;html=1;entryX=0.189;entryY=1.025;entryDx=0;entryDy=0;entryPerimeter=0;strokeColor=default;strokeWidth=2;align=center;verticalAlign=middle;fontFamily=Gloria Hallelujah;fontSource=https%3A%2F%2Ffonts.googleapis.com%2Fcss%3Ffamily%3DGloria%2BHallelujah;fontSize=20;fontColor=default;labelBackgroundColor=default;endArrow=classic;flowAnimation=1;" edge="1" parent="1" source="Ucu2nFOiy2mf5pEktIg1-29" target="Ucu2nFOiy2mf5pEktIg1-26">
          <mxGeometry relative="1" as="geometry" />
        </mxCell>
        <mxCell id="Ucu2nFOiy2mf5pEktIg1-33" style="edgeStyle=orthogonalEdgeStyle;shape=connector;rounded=0;orthogonalLoop=1;jettySize=auto;html=1;exitX=0.5;exitY=1;exitDx=0;exitDy=0;entryX=0.5;entryY=0;entryDx=0;entryDy=0;strokeColor=default;strokeWidth=2;align=center;verticalAlign=middle;fontFamily=Gloria Hallelujah;fontSource=https%3A%2F%2Ffonts.googleapis.com%2Fcss%3Ffamily%3DGloria%2BHallelujah;fontSize=20;fontColor=default;labelBackgroundColor=default;endArrow=classic;flowAnimation=1;" edge="1" parent="1" source="Ucu2nFOiy2mf5pEktIg1-31" target="Ucu2nFOiy2mf5pEktIg1-32">
          <mxGeometry relative="1" as="geometry" />
        </mxCell>
        <mxCell id="Ucu2nFOiy2mf5pEktIg1-31" value="CI/CD" style="rounded=1;whiteSpace=wrap;html=1;sketch=1;curveFitting=1;jiggle=2;fontFamily=Gloria Hallelujah;fontSource=https%3A%2F%2Ffonts.googleapis.com%2Fcss%3Ffamily%3DGloria%2BHallelujah;fontSize=20;" vertex="1" parent="1">
          <mxGeometry x="690" y="560" width="90" height="40" as="geometry" />
        </mxCell>
        <mxCell id="Ucu2nFOiy2mf5pEktIg1-66" style="edgeStyle=orthogonalEdgeStyle;shape=connector;rounded=0;orthogonalLoop=1;jettySize=auto;html=1;entryX=0.5;entryY=0;entryDx=0;entryDy=0;strokeColor=default;strokeWidth=2;align=center;verticalAlign=middle;fontFamily=Gloria Hallelujah;fontSource=https%3A%2F%2Ffonts.googleapis.com%2Fcss%3Ffamily%3DGloria%2BHallelujah;fontSize=20;fontColor=default;labelBackgroundColor=default;endArrow=classic;flowAnimation=1;" edge="1" parent="1" source="Ucu2nFOiy2mf5pEktIg1-32" target="Ucu2nFOiy2mf5pEktIg1-64">
          <mxGeometry relative="1" as="geometry" />
        </mxCell>
        <mxCell id="Ucu2nFOiy2mf5pEktIg1-32" value="DAST" style="rounded=1;whiteSpace=wrap;html=1;sketch=1;curveFitting=1;jiggle=2;fontFamily=Gloria Hallelujah;fontSource=https%3A%2F%2Ffonts.googleapis.com%2Fcss%3Ffamily%3DGloria%2BHallelujah;fontSize=20;fillColor=#ffcd28;gradientColor=#ffa500;strokeColor=#d79b00;fontColor=#000000;" vertex="1" parent="1">
          <mxGeometry x="690" y="640" width="90" height="40" as="geometry" />
        </mxCell>
        <mxCell id="Ucu2nFOiy2mf5pEktIg1-34" style="edgeStyle=orthogonalEdgeStyle;rounded=0;orthogonalLoop=1;jettySize=auto;html=1;exitX=0.5;exitY=0.5;exitDx=0;exitDy=0;exitPerimeter=0;entryX=0;entryY=0.5;entryDx=0;entryDy=0;fontFamily=Gloria Hallelujah;fontSource=https%3A%2F%2Ffonts.googleapis.com%2Fcss%3Ffamily%3DGloria%2BHallelujah;fontSize=20;fontColor=default;strokeWidth=2;flowAnimation=1;" edge="1" parent="1" source="Ucu2nFOiy2mf5pEktIg1-35" target="Ucu2nFOiy2mf5pEktIg1-37">
          <mxGeometry relative="1" as="geometry" />
        </mxCell>
        <mxCell id="Ucu2nFOiy2mf5pEktIg1-35" value="Developer" style="shape=umlActor;verticalLabelPosition=bottom;verticalAlign=top;html=1;outlineConnect=0;sketch=1;curveFitting=1;jiggle=2;fontFamily=Gloria Hallelujah;fontSource=https%3A%2F%2Ffonts.googleapis.com%2Fcss%3Ffamily%3DGloria%2BHallelujah;fontSize=18;" vertex="1" parent="1">
          <mxGeometry x="320" y="1010" width="30" height="60" as="geometry" />
        </mxCell>
        <mxCell id="Ucu2nFOiy2mf5pEktIg1-36" style="edgeStyle=orthogonalEdgeStyle;shape=connector;rounded=0;orthogonalLoop=1;jettySize=auto;html=1;exitX=1;exitY=0.5;exitDx=0;exitDy=0;entryX=0;entryY=0.5;entryDx=0;entryDy=0;strokeColor=default;strokeWidth=2;align=center;verticalAlign=middle;fontFamily=Gloria Hallelujah;fontSource=https%3A%2F%2Ffonts.googleapis.com%2Fcss%3Ffamily%3DGloria%2BHallelujah;fontSize=20;fontColor=default;labelBackgroundColor=default;endArrow=classic;flowAnimation=1;" edge="1" parent="1" source="Ucu2nFOiy2mf5pEktIg1-37" target="Ucu2nFOiy2mf5pEktIg1-39">
          <mxGeometry relative="1" as="geometry" />
        </mxCell>
        <mxCell id="Ucu2nFOiy2mf5pEktIg1-37" value="IDE" style="rounded=1;whiteSpace=wrap;html=1;sketch=1;curveFitting=1;jiggle=2;fontFamily=Gloria Hallelujah;fontSource=https%3A%2F%2Ffonts.googleapis.com%2Fcss%3Ffamily%3DGloria%2BHallelujah;fontSize=20;fillColor=#dae8fc;gradientColor=#7ea6e0;strokeColor=#6c8ebf;fontColor=#000000;" vertex="1" parent="1">
          <mxGeometry x="410" y="1020" width="90" height="40" as="geometry" />
        </mxCell>
        <mxCell id="Ucu2nFOiy2mf5pEktIg1-38" style="edgeStyle=orthogonalEdgeStyle;shape=connector;rounded=0;orthogonalLoop=1;jettySize=auto;html=1;exitX=1;exitY=0.5;exitDx=0;exitDy=0;entryX=0;entryY=0.5;entryDx=0;entryDy=0;strokeColor=default;strokeWidth=2;align=center;verticalAlign=middle;fontFamily=Gloria Hallelujah;fontSource=https%3A%2F%2Ffonts.googleapis.com%2Fcss%3Ffamily%3DGloria%2BHallelujah;fontSize=20;fontColor=default;labelBackgroundColor=default;endArrow=classic;flowAnimation=1;" edge="1" parent="1" source="Ucu2nFOiy2mf5pEktIg1-39" target="Ucu2nFOiy2mf5pEktIg1-45">
          <mxGeometry relative="1" as="geometry" />
        </mxCell>
        <mxCell id="Ucu2nFOiy2mf5pEktIg1-67" style="edgeStyle=orthogonalEdgeStyle;shape=connector;rounded=0;orthogonalLoop=1;jettySize=auto;html=1;exitX=0.5;exitY=0;exitDx=0;exitDy=0;entryX=0.5;entryY=1;entryDx=0;entryDy=0;strokeColor=default;strokeWidth=2;align=center;verticalAlign=middle;fontFamily=Gloria Hallelujah;fontSource=https%3A%2F%2Ffonts.googleapis.com%2Fcss%3Ffamily%3DGloria%2BHallelujah;fontSize=20;fontColor=default;labelBackgroundColor=default;endArrow=classic;flowAnimation=1;" edge="1" parent="1" source="Ucu2nFOiy2mf5pEktIg1-39" target="Ucu2nFOiy2mf5pEktIg1-51">
          <mxGeometry relative="1" as="geometry" />
        </mxCell>
        <mxCell id="Ucu2nFOiy2mf5pEktIg1-39" value="Repo" style="rounded=1;whiteSpace=wrap;html=1;sketch=1;curveFitting=1;jiggle=2;fontFamily=Gloria Hallelujah;fontSource=https%3A%2F%2Ffonts.googleapis.com%2Fcss%3Ffamily%3DGloria%2BHallelujah;fontSize=20;" vertex="1" parent="1">
          <mxGeometry x="550" y="1020" width="90" height="40" as="geometry" />
        </mxCell>
        <mxCell id="Ucu2nFOiy2mf5pEktIg1-40" style="edgeStyle=orthogonalEdgeStyle;rounded=0;orthogonalLoop=1;jettySize=auto;html=1;exitX=0.5;exitY=0.5;exitDx=0;exitDy=0;exitPerimeter=0;entryX=0;entryY=0.5;entryDx=0;entryDy=0;fontFamily=Gloria Hallelujah;fontSource=https%3A%2F%2Ffonts.googleapis.com%2Fcss%3Ffamily%3DGloria%2BHallelujah;fontSize=20;fontColor=default;strokeWidth=2;flowAnimation=1;" edge="1" parent="1" source="Ucu2nFOiy2mf5pEktIg1-41" target="Ucu2nFOiy2mf5pEktIg1-42">
          <mxGeometry relative="1" as="geometry" />
        </mxCell>
        <mxCell id="Ucu2nFOiy2mf5pEktIg1-41" value="Developer" style="shape=umlActor;verticalLabelPosition=bottom;verticalAlign=top;html=1;outlineConnect=0;sketch=1;curveFitting=1;jiggle=2;fontFamily=Gloria Hallelujah;fontSource=https%3A%2F%2Ffonts.googleapis.com%2Fcss%3Ffamily%3DGloria%2BHallelujah;fontSize=18;" vertex="1" parent="1">
          <mxGeometry x="320" y="1115" width="30" height="60" as="geometry" />
        </mxCell>
        <mxCell id="Ucu2nFOiy2mf5pEktIg1-42" value="IDE" style="rounded=1;whiteSpace=wrap;html=1;sketch=1;curveFitting=1;jiggle=2;fontFamily=Gloria Hallelujah;fontSource=https%3A%2F%2Ffonts.googleapis.com%2Fcss%3Ffamily%3DGloria%2BHallelujah;fontSize=20;fillColor=#dae8fc;gradientColor=#7ea6e0;strokeColor=#6c8ebf;fontColor=#000000;" vertex="1" parent="1">
          <mxGeometry x="410" y="1125" width="90" height="40" as="geometry" />
        </mxCell>
        <mxCell id="Ucu2nFOiy2mf5pEktIg1-43" style="edgeStyle=orthogonalEdgeStyle;shape=connector;rounded=0;orthogonalLoop=1;jettySize=auto;html=1;entryX=0.189;entryY=1.025;entryDx=0;entryDy=0;entryPerimeter=0;strokeColor=default;strokeWidth=2;align=center;verticalAlign=middle;fontFamily=Gloria Hallelujah;fontSource=https%3A%2F%2Ffonts.googleapis.com%2Fcss%3Ffamily%3DGloria%2BHallelujah;fontSize=20;fontColor=default;labelBackgroundColor=default;endArrow=classic;flowAnimation=1;" edge="1" parent="1" source="Ucu2nFOiy2mf5pEktIg1-42" target="Ucu2nFOiy2mf5pEktIg1-39">
          <mxGeometry relative="1" as="geometry" />
        </mxCell>
        <mxCell id="Ucu2nFOiy2mf5pEktIg1-44" style="edgeStyle=orthogonalEdgeStyle;shape=connector;rounded=0;orthogonalLoop=1;jettySize=auto;html=1;exitX=0.5;exitY=1;exitDx=0;exitDy=0;strokeColor=default;strokeWidth=2;align=center;verticalAlign=middle;fontFamily=Gloria Hallelujah;fontSource=https%3A%2F%2Ffonts.googleapis.com%2Fcss%3Ffamily%3DGloria%2BHallelujah;fontSize=20;fontColor=default;labelBackgroundColor=default;endArrow=classic;flowAnimation=1;entryX=0.5;entryY=0;entryDx=0;entryDy=0;" edge="1" parent="1" source="Ucu2nFOiy2mf5pEktIg1-45" target="Ucu2nFOiy2mf5pEktIg1-74">
          <mxGeometry relative="1" as="geometry">
            <mxPoint x="735" y="1080" as="targetPoint" />
          </mxGeometry>
        </mxCell>
        <mxCell id="Ucu2nFOiy2mf5pEktIg1-45" value="CI/CD" style="rounded=1;whiteSpace=wrap;html=1;sketch=1;curveFitting=1;jiggle=2;fontFamily=Gloria Hallelujah;fontSource=https%3A%2F%2Ffonts.googleapis.com%2Fcss%3Ffamily%3DGloria%2BHallelujah;fontSize=20;" vertex="1" parent="1">
          <mxGeometry x="690" y="1020" width="90" height="40" as="geometry" />
        </mxCell>
        <mxCell id="Ucu2nFOiy2mf5pEktIg1-58" style="edgeStyle=orthogonalEdgeStyle;shape=connector;rounded=0;orthogonalLoop=1;jettySize=auto;html=1;entryX=0.5;entryY=0;entryDx=0;entryDy=0;strokeColor=default;strokeWidth=2;align=center;verticalAlign=middle;fontFamily=Gloria Hallelujah;fontSource=https%3A%2F%2Ffonts.googleapis.com%2Fcss%3Ffamily%3DGloria%2BHallelujah;fontSize=20;fontColor=default;labelBackgroundColor=default;endArrow=classic;flowAnimation=1;" edge="1" parent="1" source="Ucu2nFOiy2mf5pEktIg1-46" target="Ucu2nFOiy2mf5pEktIg1-57">
          <mxGeometry relative="1" as="geometry" />
        </mxCell>
        <mxCell id="Ucu2nFOiy2mf5pEktIg1-46" value="GitOps" style="rounded=1;whiteSpace=wrap;html=1;sketch=1;curveFitting=1;jiggle=2;fontFamily=Gloria Hallelujah;fontSource=https%3A%2F%2Ffonts.googleapis.com%2Fcss%3Ffamily%3DGloria%2BHallelujah;fontSize=20;" vertex="1" parent="1">
          <mxGeometry x="690" y="1160" width="90" height="40" as="geometry" />
        </mxCell>
        <mxCell id="Ucu2nFOiy2mf5pEktIg1-49" style="edgeStyle=orthogonalEdgeStyle;shape=connector;rounded=0;orthogonalLoop=1;jettySize=auto;html=1;entryX=0;entryY=0.5;entryDx=0;entryDy=0;strokeColor=default;strokeWidth=2;align=center;verticalAlign=middle;fontFamily=Gloria Hallelujah;fontSource=https%3A%2F%2Ffonts.googleapis.com%2Fcss%3Ffamily%3DGloria%2BHallelujah;fontSize=20;fontColor=default;labelBackgroundColor=default;endArrow=classic;flowAnimation=1;" edge="1" parent="1" source="Ucu2nFOiy2mf5pEktIg1-47" target="Ucu2nFOiy2mf5pEktIg1-48">
          <mxGeometry relative="1" as="geometry" />
        </mxCell>
        <mxCell id="Ucu2nFOiy2mf5pEktIg1-47" value="Users" style="shape=umlActor;verticalLabelPosition=bottom;verticalAlign=top;html=1;outlineConnect=0;sketch=1;curveFitting=1;jiggle=2;fontFamily=Gloria Hallelujah;fontSource=https%3A%2F%2Ffonts.googleapis.com%2Fcss%3Ffamily%3DGloria%2BHallelujah;fontSize=18;" vertex="1" parent="1">
          <mxGeometry x="320" y="1230" width="30" height="60" as="geometry" />
        </mxCell>
        <mxCell id="Ucu2nFOiy2mf5pEktIg1-48" value="GenAI" style="rounded=1;whiteSpace=wrap;html=1;sketch=1;curveFitting=1;jiggle=2;fontFamily=Gloria Hallelujah;fontSource=https%3A%2F%2Ffonts.googleapis.com%2Fcss%3Ffamily%3DGloria%2BHallelujah;fontSize=20;fillColor=#e6d0de;gradientColor=#d5739d;strokeColor=#996185;fontColor=#000000;" vertex="1" parent="1">
          <mxGeometry x="410" y="1240" width="90" height="40" as="geometry" />
        </mxCell>
        <mxCell id="Ucu2nFOiy2mf5pEktIg1-50" style="edgeStyle=orthogonalEdgeStyle;shape=connector;rounded=0;orthogonalLoop=1;jettySize=auto;html=1;exitX=1;exitY=0.5;exitDx=0;exitDy=0;entryX=0.578;entryY=1.05;entryDx=0;entryDy=0;entryPerimeter=0;strokeColor=default;strokeWidth=2;align=center;verticalAlign=middle;fontFamily=Gloria Hallelujah;fontSource=https%3A%2F%2Ffonts.googleapis.com%2Fcss%3Ffamily%3DGloria%2BHallelujah;fontSize=20;fontColor=default;labelBackgroundColor=default;endArrow=classic;flowAnimation=1;" edge="1" parent="1" source="Ucu2nFOiy2mf5pEktIg1-48" target="Ucu2nFOiy2mf5pEktIg1-39">
          <mxGeometry relative="1" as="geometry" />
        </mxCell>
        <mxCell id="Ucu2nFOiy2mf5pEktIg1-55" style="edgeStyle=orthogonalEdgeStyle;shape=connector;rounded=0;orthogonalLoop=1;jettySize=auto;html=1;exitX=0.75;exitY=1;exitDx=0;exitDy=0;entryX=0.5;entryY=0;entryDx=0;entryDy=0;strokeColor=default;strokeWidth=2;align=center;verticalAlign=middle;fontFamily=Gloria Hallelujah;fontSource=https%3A%2F%2Ffonts.googleapis.com%2Fcss%3Ffamily%3DGloria%2BHallelujah;fontSize=20;fontColor=default;labelBackgroundColor=default;endArrow=classic;flowAnimation=1;" edge="1" parent="1" source="Ucu2nFOiy2mf5pEktIg1-51" target="Ucu2nFOiy2mf5pEktIg1-45">
          <mxGeometry relative="1" as="geometry" />
        </mxCell>
        <mxCell id="Ucu2nFOiy2mf5pEktIg1-68" style="edgeStyle=orthogonalEdgeStyle;shape=connector;rounded=0;orthogonalLoop=1;jettySize=auto;html=1;exitX=0.5;exitY=0;exitDx=0;exitDy=0;entryX=0.5;entryY=1;entryDx=0;entryDy=0;strokeColor=default;strokeWidth=2;align=center;verticalAlign=middle;fontFamily=Gloria Hallelujah;fontSource=https%3A%2F%2Ffonts.googleapis.com%2Fcss%3Ffamily%3DGloria%2BHallelujah;fontSize=20;fontColor=default;labelBackgroundColor=default;endArrow=classic;flowAnimation=1;" edge="1" parent="1" source="Ucu2nFOiy2mf5pEktIg1-51" target="Ucu2nFOiy2mf5pEktIg1-52">
          <mxGeometry relative="1" as="geometry" />
        </mxCell>
        <mxCell id="Ucu2nFOiy2mf5pEktIg1-51" value="Code Quality &amp;amp; Efficiency&amp;nbsp;" style="rounded=1;whiteSpace=wrap;html=1;sketch=1;curveFitting=1;jiggle=2;fontFamily=Gloria Hallelujah;fontSource=https%3A%2F%2Ffonts.googleapis.com%2Fcss%3Ffamily%3DGloria%2BHallelujah;fontSize=20;" vertex="1" parent="1">
          <mxGeometry x="410" y="940" width="370" height="40" as="geometry" />
        </mxCell>
        <mxCell id="Ucu2nFOiy2mf5pEktIg1-69" style="edgeStyle=orthogonalEdgeStyle;shape=connector;rounded=0;orthogonalLoop=1;jettySize=auto;html=1;exitX=0.75;exitY=1;exitDx=0;exitDy=0;entryX=0.75;entryY=0;entryDx=0;entryDy=0;strokeColor=default;strokeWidth=2;align=center;verticalAlign=middle;fontFamily=Gloria Hallelujah;fontSource=https%3A%2F%2Ffonts.googleapis.com%2Fcss%3Ffamily%3DGloria%2BHallelujah;fontSize=20;fontColor=default;labelBackgroundColor=default;endArrow=classic;flowAnimation=1;" edge="1" parent="1" source="Ucu2nFOiy2mf5pEktIg1-52" target="Ucu2nFOiy2mf5pEktIg1-51">
          <mxGeometry relative="1" as="geometry" />
        </mxCell>
        <mxCell id="Ucu2nFOiy2mf5pEktIg1-52" value="Code to Cloud Security" style="rounded=1;whiteSpace=wrap;html=1;sketch=1;curveFitting=1;jiggle=2;fontFamily=Gloria Hallelujah;fontSource=https%3A%2F%2Ffonts.googleapis.com%2Fcss%3Ffamily%3DGloria%2BHallelujah;fontSize=20;" vertex="1" parent="1">
          <mxGeometry x="410" y="870" width="370" height="40" as="geometry" />
        </mxCell>
        <mxCell id="Ucu2nFOiy2mf5pEktIg1-60" style="edgeStyle=orthogonalEdgeStyle;shape=connector;rounded=0;orthogonalLoop=1;jettySize=auto;html=1;entryX=0.5;entryY=0;entryDx=0;entryDy=0;strokeColor=default;strokeWidth=2;align=center;verticalAlign=middle;fontFamily=Gloria Hallelujah;fontSource=https%3A%2F%2Ffonts.googleapis.com%2Fcss%3Ffamily%3DGloria%2BHallelujah;fontSize=20;fontColor=default;labelBackgroundColor=default;endArrow=classic;flowAnimation=1;" edge="1" parent="1" source="Ucu2nFOiy2mf5pEktIg1-57" target="Ucu2nFOiy2mf5pEktIg1-59">
          <mxGeometry relative="1" as="geometry" />
        </mxCell>
        <mxCell id="Ucu2nFOiy2mf5pEktIg1-57" value="Deploy" style="rounded=1;whiteSpace=wrap;html=1;sketch=1;curveFitting=1;jiggle=2;fontFamily=Gloria Hallelujah;fontSource=https%3A%2F%2Ffonts.googleapis.com%2Fcss%3Ffamily%3DGloria%2BHallelujah;fontSize=20;fillColor=#f5f5f5;gradientColor=#b3b3b3;strokeColor=#666666;fontColor=#000000;" vertex="1" parent="1">
          <mxGeometry x="690" y="1225" width="90" height="40" as="geometry" />
        </mxCell>
        <mxCell id="Ucu2nFOiy2mf5pEktIg1-61" style="edgeStyle=orthogonalEdgeStyle;shape=connector;rounded=0;orthogonalLoop=1;jettySize=auto;html=1;exitX=0;exitY=0.5;exitDx=0;exitDy=0;entryX=0;entryY=0.5;entryDx=0;entryDy=0;strokeColor=default;strokeWidth=2;align=center;verticalAlign=middle;fontFamily=Gloria Hallelujah;fontSource=https%3A%2F%2Ffonts.googleapis.com%2Fcss%3Ffamily%3DGloria%2BHallelujah;fontSize=20;fontColor=default;labelBackgroundColor=default;endArrow=classic;flowAnimation=1;" edge="1" parent="1" source="Ucu2nFOiy2mf5pEktIg1-59" target="Ucu2nFOiy2mf5pEktIg1-57">
          <mxGeometry relative="1" as="geometry" />
        </mxCell>
        <mxCell id="Ucu2nFOiy2mf5pEktIg1-59" value="o11y" style="rounded=1;whiteSpace=wrap;html=1;sketch=1;curveFitting=1;jiggle=2;fontFamily=Gloria Hallelujah;fontSource=https%3A%2F%2Ffonts.googleapis.com%2Fcss%3Ffamily%3DGloria%2BHallelujah;fontSize=20;" vertex="1" parent="1">
          <mxGeometry x="690" y="1300" width="90" height="40" as="geometry" />
        </mxCell>
        <mxCell id="Ucu2nFOiy2mf5pEktIg1-63" style="edgeStyle=orthogonalEdgeStyle;shape=connector;rounded=0;orthogonalLoop=1;jettySize=auto;html=1;entryX=0.5;entryY=1;entryDx=0;entryDy=0;strokeColor=default;strokeWidth=2;align=center;verticalAlign=middle;fontFamily=Gloria Hallelujah;fontSource=https%3A%2F%2Ffonts.googleapis.com%2Fcss%3Ffamily%3DGloria%2BHallelujah;fontSize=20;fontColor=default;labelBackgroundColor=default;endArrow=classic;flowAnimation=1;" edge="1" parent="1" source="Ucu2nFOiy2mf5pEktIg1-62" target="Ucu2nFOiy2mf5pEktIg1-19">
          <mxGeometry relative="1" as="geometry" />
        </mxCell>
        <mxCell id="Ucu2nFOiy2mf5pEktIg1-62" value="DAST" style="rounded=1;whiteSpace=wrap;html=1;sketch=1;curveFitting=1;jiggle=2;fontFamily=Gloria Hallelujah;fontSource=https%3A%2F%2Ffonts.googleapis.com%2Fcss%3Ffamily%3DGloria%2BHallelujah;fontSize=20;fillColor=#ffcd28;gradientColor=#ffa500;strokeColor=#d79b00;fontColor=#000000;" vertex="1" parent="1">
          <mxGeometry x="700" y="345" width="90" height="40" as="geometry" />
        </mxCell>
        <mxCell id="Ucu2nFOiy2mf5pEktIg1-64" value="Deploy" style="rounded=1;whiteSpace=wrap;html=1;sketch=1;curveFitting=1;jiggle=2;fontFamily=Gloria Hallelujah;fontSource=https%3A%2F%2Ffonts.googleapis.com%2Fcss%3Ffamily%3DGloria%2BHallelujah;fontSize=20;fillColor=#f5f5f5;gradientColor=#b3b3b3;strokeColor=#666666;fontColor=#000000;" vertex="1" parent="1">
          <mxGeometry x="690" y="715" width="90" height="40" as="geometry" />
        </mxCell>
        <mxCell id="Ucu2nFOiy2mf5pEktIg1-70" value="SCA" style="rounded=1;whiteSpace=wrap;html=1;sketch=1;curveFitting=1;jiggle=2;fontFamily=Gloria Hallelujah;fontSource=https%3A%2F%2Ffonts.googleapis.com%2Fcss%3Ffamily%3DGloria%2BHallelujah;fontSize=20;fillColor=#d5e8d4;gradientColor=#97d077;strokeColor=#82b366;fontColor=#000000;" vertex="1" parent="1">
          <mxGeometry x="410" y="818" width="90" height="40" as="geometry" />
        </mxCell>
        <mxCell id="Ucu2nFOiy2mf5pEktIg1-71" value="Secret" style="rounded=1;whiteSpace=wrap;html=1;sketch=1;curveFitting=1;jiggle=2;fontFamily=Gloria Hallelujah;fontSource=https%3A%2F%2Ffonts.googleapis.com%2Fcss%3Ffamily%3DGloria%2BHallelujah;fontSize=20;fillColor=#d5e8d4;gradientColor=#97d077;strokeColor=#82b366;fontColor=#000000;" vertex="1" parent="1">
          <mxGeometry x="510" y="818" width="90" height="40" as="geometry" />
        </mxCell>
        <mxCell id="Ucu2nFOiy2mf5pEktIg1-72" value="SAST" style="rounded=1;whiteSpace=wrap;html=1;sketch=1;curveFitting=1;jiggle=2;fontFamily=Gloria Hallelujah;fontSource=https%3A%2F%2Ffonts.googleapis.com%2Fcss%3Ffamily%3DGloria%2BHallelujah;fontSize=20;fillColor=#d5e8d4;gradientColor=#97d077;strokeColor=#82b366;fontColor=#000000;" vertex="1" parent="1">
          <mxGeometry x="610" y="818" width="90" height="40" as="geometry" />
        </mxCell>
        <mxCell id="Ucu2nFOiy2mf5pEktIg1-73" value="IaC" style="rounded=1;whiteSpace=wrap;html=1;sketch=1;curveFitting=1;jiggle=2;fontFamily=Gloria Hallelujah;fontSource=https%3A%2F%2Ffonts.googleapis.com%2Fcss%3Ffamily%3DGloria%2BHallelujah;fontSize=20;fillColor=#d5e8d4;gradientColor=#97d077;strokeColor=#82b366;fontColor=#000000;" vertex="1" parent="1">
          <mxGeometry x="710" y="818" width="70" height="40" as="geometry" />
        </mxCell>
        <mxCell id="Ucu2nFOiy2mf5pEktIg1-76" style="edgeStyle=orthogonalEdgeStyle;shape=connector;rounded=0;orthogonalLoop=1;jettySize=auto;html=1;exitX=0.5;exitY=1;exitDx=0;exitDy=0;entryX=0.5;entryY=0;entryDx=0;entryDy=0;strokeColor=default;strokeWidth=2;align=center;verticalAlign=middle;fontFamily=Gloria Hallelujah;fontSource=https%3A%2F%2Ffonts.googleapis.com%2Fcss%3Ffamily%3DGloria%2BHallelujah;fontSize=20;fontColor=default;labelBackgroundColor=default;endArrow=classic;flowAnimation=1;" edge="1" parent="1" source="Ucu2nFOiy2mf5pEktIg1-74" target="Ucu2nFOiy2mf5pEktIg1-46">
          <mxGeometry relative="1" as="geometry" />
        </mxCell>
        <mxCell id="Ucu2nFOiy2mf5pEktIg1-74" value="DAST/IAST" style="rounded=1;whiteSpace=wrap;html=1;sketch=1;curveFitting=1;jiggle=2;fontFamily=Gloria Hallelujah;fontSource=https%3A%2F%2Ffonts.googleapis.com%2Fcss%3Ffamily%3DGloria%2BHallelujah;fontSize=20;fillColor=#ffcd28;gradientColor=#ffa500;strokeColor=#d79b00;fontColor=#000000;" vertex="1" parent="1">
          <mxGeometry x="670" y="1090" width="130" height="40" as="geometry" />
        </mxCell>
        <mxCell id="Ucu2nFOiy2mf5pEktIg1-78" value="" style="endArrow=none;dashed=1;html=1;rounded=0;strokeColor=default;strokeWidth=2;align=center;verticalAlign=middle;fontFamily=Gloria Hallelujah;fontSource=https%3A%2F%2Ffonts.googleapis.com%2Fcss%3Ffamily%3DGloria%2BHallelujah;fontSize=20;fontColor=default;labelBackgroundColor=default;edgeStyle=orthogonalEdgeStyle;flowAnimation=0;sketch=1;curveFitting=1;jiggle=2;" edge="1" parent="1">
          <mxGeometry width="50" height="50" relative="1" as="geometry">
            <mxPoint x="271" y="1360" as="sourcePoint" />
            <mxPoint x="271" y="250" as="targetPoint" />
          </mxGeometry>
        </mxCell>
        <mxCell id="Ucu2nFOiy2mf5pEktIg1-80" value="" style="endArrow=none;dashed=1;html=1;rounded=0;strokeColor=default;strokeWidth=2;align=center;verticalAlign=middle;fontFamily=Gloria Hallelujah;fontSource=https%3A%2F%2Ffonts.googleapis.com%2Fcss%3Ffamily%3DGloria%2BHallelujah;fontSize=20;fontColor=default;labelBackgroundColor=default;edgeStyle=orthogonalEdgeStyle;flowAnimation=0;sketch=1;curveFitting=1;jiggle=2;" edge="1" parent="1">
          <mxGeometry width="50" height="50" relative="1" as="geometry">
            <mxPoint x="850" y="470" as="sourcePoint" />
            <mxPoint x="100" y="470" as="targetPoint" />
          </mxGeometry>
        </mxCell>
        <mxCell id="Ucu2nFOiy2mf5pEktIg1-81" value="" style="endArrow=none;dashed=1;html=1;rounded=0;strokeColor=default;strokeWidth=2;align=center;verticalAlign=middle;fontFamily=Gloria Hallelujah;fontSource=https%3A%2F%2Ffonts.googleapis.com%2Fcss%3Ffamily%3DGloria%2BHallelujah;fontSize=20;fontColor=default;labelBackgroundColor=default;edgeStyle=orthogonalEdgeStyle;flowAnimation=0;sketch=1;curveFitting=1;jiggle=2;" edge="1" parent="1">
          <mxGeometry width="50" height="50" relative="1" as="geometry">
            <mxPoint x="850" y="790" as="sourcePoint" />
            <mxPoint x="100" y="790" as="targetPoint" />
          </mxGeometry>
        </mxCell>
        <mxCell id="Ucu2nFOiy2mf5pEktIg1-83" style="edgeStyle=orthogonalEdgeStyle;shape=connector;rounded=0;orthogonalLoop=1;jettySize=auto;html=1;strokeColor=default;strokeWidth=2;align=center;verticalAlign=middle;fontFamily=Gloria Hallelujah;fontSource=https%3A%2F%2Ffonts.googleapis.com%2Fcss%3Ffamily%3DGloria%2BHallelujah;fontSize=20;fontColor=default;labelBackgroundColor=default;endArrow=classic;flowAnimation=1;" edge="1" parent="1" source="Ucu2nFOiy2mf5pEktIg1-82" target="Ucu2nFOiy2mf5pEktIg1-26">
          <mxGeometry relative="1" as="geometry" />
        </mxCell>
        <mxCell id="Ucu2nFOiy2mf5pEktIg1-82" value="SAST" style="rounded=1;whiteSpace=wrap;html=1;sketch=1;curveFitting=1;jiggle=2;fontFamily=Gloria Hallelujah;fontSource=https%3A%2F%2Ffonts.googleapis.com%2Fcss%3Ffamily%3DGloria%2BHallelujah;fontSize=20;fillColor=#d5e8d4;gradientColor=#97d077;strokeColor=#82b366;fontColor=#000000;" vertex="1" parent="1">
          <mxGeometry x="550" y="480" width="90" height="40" as="geometry" />
        </mxCell>
      </root>
    </mxGraphModel>
  </diagram>
</mxfile>
